<svg id="EP_Logo_Green" data-name="EP Logo Green" xmlns="http://www.w3.org/2000/svg" viewBox="0 0 226 226"><defs><style>.cls-1{fill:#00c895;}</style></defs><g id="icon"><path class="cls-1" d="M69.34,87.67v19.21a5.45,5.45,0,0,1-5.44,5.45H44.68V93.11a5.45,5.45,0,0,1,5.45-5.44H69.34m12-12H50.13A17.44,17.44,0,0,0,32.68,93.11v31.22H63.9a17.44,17.44,0,0,0,17.44-17.45V75.67Z"/><polygon class="cls-1" points="141.35 94.03 125.56 143.45 134.03 151.93 149.83 99.86 141.35 94.03"/><rect class="cls-1" x="84.97" y="106.54" width="10.57" height="53.55" transform="translate(-67.83 102.87) rotate(-45)"/><polygon class="cls-1" points="81.48 99.37 135.98 86.01 127.24 77.27 72.73 90.63 81.48 99.37"/><path class="cls-1" d="M113,224.46A111.47,111.47,0,0,1,34.18,34.18,111.47,111.47,0,0,1,191.82,191.82,110.76,110.76,0,0,1,113,224.46Zm0-213A101.54,101.54,0,0,0,41.2,184.8,101.54,101.54,0,0,0,184.8,41.2,100.92,100.92,0,0,0,113,11.46Z"/><path class="cls-1" d="M163.91,64.71V83.93a5.45,5.45,0,0,1-5.45,5.44H139.25V70.16a5.45,5.45,0,0,1,5.44-5.45h19.22m12-12H144.69a17.44,17.44,0,0,0-17.44,17.45v31.21h31.21a17.44,17.44,0,0,0,17.45-17.44V52.71Z"/><path class="cls-1" d="M136.37,154.69V173.9a5.46,5.46,0,0,1-5.45,5.45H111.71V160.13a5.45,5.45,0,0,1,5.44-5.44h19.22m12-12H117.15a17.44,17.44,0,0,0-17.44,17.44v31.22h31.21a17.45,17.45,0,0,0,17.45-17.45V142.69Z"/></g></svg>